# xmcd
#
# Track frame offsets:
#	150
#	19116
#	36021
#	58453
#	72838
#	89025
#	104565
#	118515
#	132945
#	144787
#	161121
#	174380
#	191910
#	203530
#	216911
#	232690
#	251740
#	262864
#	275659
#	291720
#
# Disc length: 4092 seconds
#
# Revision: 1
# Processed by: cddbd v1.5.2PL0 Copyright (c) Steve Scherf et al.
# Submitted via: EasyCDDAExtractor 15.3.0.1
#
DISCID=350ffa14
DTITLE=Yuri - La Mas Completa Coleccion - CD 2
DYEAR=2015
DGENRE=Latin
TTITLE0=Y Tu Como Estas
TTITLE1=Yo Te Pido Amor
TTITLE2=El Espejo
TTITLE3=Si Te Pierdo
TTITLE4=Que Sera (Ci Sara)
TTITLE5=Solos
TTITLE6=El Pequeño Panda De Chapultepec
TTITLE7=Eso Que Llaman Amor
TTITLE8=Hoy Todo Es Amor
TTITLE9=Te Quiero
TTITLE10=Deja
TTITLE11=Ven Y Tocame
TTITLE12=No Se Que Tienes Tu
TTITLE13=Y Descubrir Que Te Quiero
TTITLE14=Y Solo Tu
TTITLE15=Nunca He Sido Tan Feliz
TTITLE16=Soñando (Dreamin')
TTITLE17=Si Me Recuerdas
TTITLE18=Primer Amor
TTITLE19=Ni Tu, Ni Yo
EXTD=
EXTT0=
EXTT1=
EXTT2=
EXTT3=
EXTT4=
EXTT5=
EXTT6=
EXTT7=
EXTT8=
EXTT9=
EXTT10=
EXTT11=
EXTT12=
EXTT13=
EXTT14=
EXTT15=
EXTT16=
EXTT17=
EXTT18=
EXTT19=
PLAYORDER=
